<svg width="23" height="22" viewBox="0 0 23 22" fill="none" xmlns="http://www.w3.org/2000/svg">
<path d="M14.7405 7.2714H15.2405V6.7714V4.73998C15.2405 2.88985 13.4765 1.53142 11.5013 1.53142C9.52602 1.53142 7.76207 2.88985 7.76207 4.73998V6.7714V7.2714H8.26207H14.7405ZM5.83267 7.2714H6.33267V6.7714V4.73998C6.33267 2.47649 8.55699 0.5 11.5013 0.5C14.4456 0.5 16.6699 2.47649 16.6699 4.73998V6.7714V7.2714H17.1699H20.4091C21.5617 7.2714 22.3385 8.0375 22.3385 8.80282V17.6056C22.3385 19.4925 20.4735 21.1685 17.9797 21.1685H5.02287C2.52903 21.1685 0.664062 19.4925 0.664062 17.6056V8.80282C0.664062 8.0375 1.44086 7.2714 2.59346 7.2714H5.83267ZM5.33267 9.81853C5.33267 10.7376 6.18559 11.3342 7.04737 11.3342C7.90915 11.3342 8.76207 10.7376 8.76207 9.81853C8.76207 8.89946 7.90915 8.30282 7.04737 8.30282C6.18559 8.30282 5.33267 8.89946 5.33267 9.81853ZM15.9552 11.3342C16.817 11.3342 17.6699 10.7376 17.6699 9.81853C17.6699 8.89946 16.817 8.30282 15.9552 8.30282C15.0934 8.30282 14.2405 8.89946 14.2405 9.81853C14.2405 10.7376 15.0934 11.3342 15.9552 11.3342Z" fill="#1B1426" stroke="#F9AA01"/>
</svg>
