<svg width="23" height="22" viewBox="0 0 23 22" fill="none" xmlns="http://www.w3.org/2000/svg">
<path d="M16.5792 13.6901L16.3076 14.0457L16.631 14.355L22.2379 19.7163L22.238 19.7164C22.5855 20.0484 22.5855 20.5783 22.238 20.9103C21.8777 21.2546 21.2829 21.2546 20.9226 20.9103L15.3159 15.5491L15.0195 15.2657L14.6836 15.5008C13.2431 16.5091 11.4652 17.1031 9.53615 17.1031C4.70187 17.1031 0.824219 13.3662 0.824219 8.80153C0.824219 4.2369 4.70187 0.5 9.53615 0.5C14.3704 0.5 18.2481 4.2369 18.2481 8.80153C18.2481 10.628 17.6281 12.3166 16.5792 13.6901ZM9.53615 15.3949C13.3115 15.3949 16.4136 12.4629 16.4136 8.80153C16.4136 5.14011 13.3115 2.20816 9.53615 2.20816C5.76082 2.20816 2.65866 5.14011 2.65866 8.80153C2.65866 12.4629 5.76082 15.3949 9.53615 15.3949Z" fill="#1B1426" stroke="#F9AA01"/>
</svg>
